<svg width="15" height="17" viewBox="0 0 15 17" fill="none" xmlns="http://www.w3.org/2000/svg">
<path fill-rule="evenodd" clip-rule="evenodd" d="M4.40174 12.0804C4.57349 12.0804 4.74524 12.1021 4.91324 12.1471C5.42024 12.2836 5.86049 12.6226 6.12149 13.0779C6.29099 13.3636 6.38474 13.6974 6.38774 14.0379C6.38774 14.5254 6.77924 14.9161 7.26074 14.9161H8.20049C8.67974 14.9161 9.07124 14.5276 9.07349 14.0484C9.07049 13.5189 9.27749 13.0156 9.65624 12.6369C10.0297 12.2634 10.5517 12.0391 11.0737 12.0541C11.4157 12.0624 11.745 12.1546 12.0352 12.3196C12.453 12.5589 12.9862 12.4164 13.2277 12.0039L13.7257 11.1736C13.8367 10.9824 13.869 10.7424 13.8097 10.5211C13.7512 10.2999 13.6042 10.1079 13.4062 9.99462C12.9427 9.72762 12.612 9.29712 12.4747 8.78112C12.339 8.27487 12.4132 7.72212 12.678 7.26687C12.8505 6.96687 13.1032 6.71412 13.4062 6.54012C13.8127 6.30237 13.9552 5.77062 13.719 5.35662C13.7092 5.34012 13.7002 5.32287 13.6927 5.30487L13.2532 4.54287C13.014 4.12662 12.4815 3.98337 12.0637 4.22112C11.6122 4.48812 11.0752 4.56462 10.5592 4.42887C10.044 4.29537 9.61199 3.96912 9.34274 3.50862C9.17024 3.22062 9.07649 2.88537 9.07349 2.54412C9.08024 2.28762 8.99024 2.05737 8.82674 1.88862C8.66399 1.72062 8.43524 1.62537 8.20049 1.62537H7.26074C7.02824 1.62537 6.81074 1.71612 6.64649 1.87962C6.48299 2.04387 6.39374 2.26212 6.39524 2.49462C6.37949 3.59112 5.48324 4.47387 4.39799 4.47387C4.04999 4.47012 3.71474 4.37637 3.42374 4.20237C3.01499 3.96987 2.48099 4.11312 2.24174 4.52937L1.73399 5.36412C1.50149 5.76762 1.64399 6.30087 2.05799 6.54162C2.67224 6.89712 3.05549 7.56012 3.05549 8.27112C3.05549 8.98212 2.67224 9.64437 2.05649 10.0006C1.64474 10.2391 1.50224 10.7694 1.74074 11.1819L2.21399 11.9979C2.33099 12.2086 2.52224 12.3609 2.74349 12.4231C2.96399 12.4846 3.20699 12.4584 3.40949 12.3459C3.70724 12.1711 4.05374 12.0804 4.40174 12.0804ZM8.20049 16.0411H7.26074C6.15899 16.0411 5.26274 15.1456 5.26274 14.0439C5.26124 13.9081 5.22224 13.7671 5.14949 13.6449C5.03174 13.4394 4.84124 13.2924 4.62149 13.2339C4.40324 13.1754 4.16399 13.2076 3.96749 13.3216C3.49649 13.5841 2.94224 13.6479 2.43524 13.5054C1.92899 13.3621 1.49174 13.0141 1.23524 12.5529L0.76649 11.7451C0.21824 10.7941 0.54449 9.57537 1.49399 9.02637C1.76324 8.87112 1.93049 8.58162 1.93049 8.27112C1.93049 7.96062 1.76324 7.67037 1.49399 7.51512C0.54374 6.96312 0.21824 5.74137 0.76574 4.79037L1.27424 3.95562C1.81499 3.01512 3.03749 2.68362 3.99074 3.23112C4.12049 3.30837 4.26149 3.34737 4.40474 3.34887C4.87199 3.34887 5.26274 2.96337 5.27024 2.48937C5.26724 1.96662 5.47349 1.46487 5.84924 1.08612C6.22649 0.708116 6.72749 0.500366 7.26074 0.500366H8.20049C8.73749 0.500366 9.25949 0.720866 9.63374 1.10412C10.0072 1.48962 10.2135 2.01837 10.1977 2.55462C10.1992 2.67537 10.239 2.81487 10.311 2.93712C10.4302 3.13962 10.6185 3.28212 10.842 3.34062C11.0655 3.39612 11.2995 3.36612 11.4982 3.24837C12.4582 2.70012 13.68 3.02862 14.2282 3.98112L14.6955 4.79037C14.7075 4.81212 14.718 4.83312 14.727 4.85487C15.2235 5.79312 14.892 6.97437 13.9695 7.51362C13.8352 7.59087 13.7265 7.69887 13.6515 7.82937C13.5352 8.03112 13.503 8.27112 13.5615 8.49162C13.6215 8.71662 13.7647 8.90337 13.9665 9.01887C14.4217 9.28062 14.7615 9.72162 14.8972 10.2309C15.033 10.7394 14.9587 11.2914 14.694 11.7466L14.196 12.5761C13.6477 13.5181 12.426 13.8444 11.4757 13.2954C11.349 13.2226 11.2027 13.1829 11.0572 13.1791H11.0527C10.836 13.1791 10.6132 13.2714 10.4512 13.4326C10.287 13.5969 10.197 13.8159 10.1985 14.0484C10.1932 15.1501 9.29699 16.0411 8.20049 16.0411Z" fill="#666666"/>
</svg>
