<svg width="42" height="35" viewBox="0 0 42 35" fill="none" xmlns="http://www.w3.org/2000/svg">
<path d="M8.55457 8.56055L11.3142 5.10157C11.4955 4.84673 11.7422 4.64555 12.0283 4.51915C12.3143 4.39274 12.6292 4.34578 12.9397 4.3833C13.2478 4.42781 13.5401 4.54774 13.7908 4.7324C14.0414 4.91705 14.2425 5.1607 14.3762 5.44178C14.4982 5.72739 14.5432 6.04 14.5068 6.34843C14.4703 6.65686 14.3536 6.95038 14.1683 7.19965L11.4654 11.3958L10.5203 20.3739C13.3933 17.104 21.4264 17.104 23.2788 20.9598C23.3358 19.797 23.6214 18.6567 24.1192 17.6042C24.617 16.5516 25.3172 15.6074 26.1798 14.8255C27.0425 14.0436 28.0507 13.4392 29.1469 13.047C30.2431 12.6547 31.4059 12.4822 32.5688 12.5393C33.7317 12.5963 34.8719 12.8819 35.9245 13.3797C36.977 13.8774 37.9212 14.5777 38.7031 15.4403C39.485 16.303 40.0893 17.3112 40.4816 18.4074C40.8739 19.5036 41.0464 20.6664 40.9893 21.8293C40.9893 40.4282 1.06965 35.0602 1.06965 24.6456C0.502604 21.8293 3.54573 10.6775 4.84992 6.23566C5.20645 5.06717 5.81269 3.99011 6.62665 3.07911C7.15615 2.4321 7.82217 1.9102 8.57701 1.55075C9.33185 1.1913 10.1568 1.00325 10.9929 1H14.5274C15.2311 1.00094 15.9244 1.16979 16.5498 1.49249C17.1751 1.8152 17.7144 2.28242 18.1229 2.85541C18.5314 3.42841 18.7973 4.09064 18.8985 4.78702C18.9996 5.48341 18.9332 6.19383 18.7046 6.85938L18.5534 7.27521C18.2204 8.25612 17.6251 9.12708 16.832 9.79351C16.0389 10.4599 15.0785 10.8964 14.0549 11.0555L11.541 11.4335" stroke="#3D3D3D" stroke-linecap="round" stroke-linejoin="round"/>
</svg>
