<svg width="17" height="16" viewBox="0 0 17 16" fill="none" xmlns="http://www.w3.org/2000/svg">
<path fill-rule="evenodd" clip-rule="evenodd" d="M10.2398 3.83996C11.0351 3.83996 11.6798 3.19525 11.6798 2.39996C11.6798 1.60467 11.0351 0.959961 10.2398 0.959961C9.44451 0.959961 8.7998 1.60467 8.7998 2.39996C8.7998 3.19525 9.44451 3.83996 10.2398 3.83996Z" stroke="#4D4D4D" stroke-linecap="round" stroke-linejoin="round"/>
<path fill-rule="evenodd" clip-rule="evenodd" d="M3.51987 14.4C4.84536 14.4 5.91987 13.3255 5.91987 12C5.91987 10.6745 4.84536 9.59998 3.51987 9.59998C2.19439 9.59998 1.11987 10.6745 1.11987 12C1.11987 13.3255 2.19439 14.4 3.51987 14.4Z" stroke="#4D4D4D" stroke-linecap="round" stroke-linejoin="round"/>
<path fill-rule="evenodd" clip-rule="evenodd" d="M13.12 14.4C14.4455 14.4 15.52 13.3255 15.52 12C15.52 10.6745 14.4455 9.59998 13.12 9.59998C11.7945 9.59998 10.72 10.6745 10.72 12C10.72 13.3255 11.7945 14.4 13.12 14.4Z" stroke="#4D4D4D" stroke-linecap="round" stroke-linejoin="round"/>
<path fill-rule="evenodd" clip-rule="evenodd" d="M8.31983 12.96C7.78963 12.96 7.35983 12.5302 7.35983 12C7.36263 10.5652 6.56331 9.24911 5.28879 8.59008C5.01396 8.44675 4.82525 8.17954 4.78208 7.87261C4.7389 7.56568 4.84657 7.25678 5.07119 7.0432L7.65871 4.58432C7.87923 4.37467 8.18608 4.28198 8.48579 4.33448C8.78549 4.38697 9.04257 4.57844 9.17871 4.85056C9.18319 4.85888 9.91151 6.24 11.1998 6.24C11.73 6.24 12.1598 6.6698 12.1598 7.2C12.1598 7.73019 11.73 8.16 11.1998 8.16C10.0367 8.1396 8.93857 7.61936 8.18607 6.73216L7.25679 7.616C8.54275 8.70893 9.28266 10.3123 9.27983 12C9.27983 12.5302 8.85002 12.96 8.31983 12.96Z" stroke="#4D4D4D" stroke-linecap="round" stroke-linejoin="round"/>
</svg>
