<svg width="18" height="18" viewBox="0 0 18 18" fill="none" xmlns="http://www.w3.org/2000/svg">
<path fill-rule="evenodd" clip-rule="evenodd" d="M15.4998 7.42822H2.13184C1.82134 7.42822 1.56934 7.17622 1.56934 6.86572C1.56934 6.55522 1.82134 6.30322 2.13184 6.30322H15.4998C15.8103 6.30322 16.0623 6.55522 16.0623 6.86572C16.0623 7.17622 15.8103 7.42822 15.4998 7.42822Z" fill="#2E2E2E"/>
<path fill-rule="evenodd" clip-rule="evenodd" d="M12.1509 10.3572C11.8404 10.3572 11.5854 10.1052 11.5854 9.79468C11.5854 9.48418 11.8337 9.23218 12.1442 9.23218H12.1509C12.4614 9.23218 12.7134 9.48418 12.7134 9.79468C12.7134 10.1052 12.4614 10.3572 12.1509 10.3572Z" fill="#2E2E2E"/>
<path fill-rule="evenodd" clip-rule="evenodd" d="M8.82282 10.3572C8.51232 10.3572 8.25732 10.1052 8.25732 9.79468C8.25732 9.48418 8.50557 9.23218 8.81607 9.23218H8.82282C9.13332 9.23218 9.38532 9.48418 9.38532 9.79468C9.38532 10.1052 9.13332 10.3572 8.82282 10.3572Z" fill="#2E2E2E"/>
<path fill-rule="evenodd" clip-rule="evenodd" d="M5.48764 10.3572C5.17714 10.3572 4.92139 10.1052 4.92139 9.79468C4.92139 9.48418 5.17039 9.23218 5.48089 9.23218H5.48764C5.79814 9.23218 6.05014 9.48418 6.05014 9.79468C6.05014 10.1052 5.79814 10.3572 5.48764 10.3572Z" fill="#2E2E2E"/>
<path fill-rule="evenodd" clip-rule="evenodd" d="M12.1509 13.2722C11.8404 13.2722 11.5854 13.0202 11.5854 12.7097C11.5854 12.3992 11.8337 12.1472 12.1442 12.1472H12.1509C12.4614 12.1472 12.7134 12.3992 12.7134 12.7097C12.7134 13.0202 12.4614 13.2722 12.1509 13.2722Z" fill="#2E2E2E"/>
<path fill-rule="evenodd" clip-rule="evenodd" d="M8.82282 13.2722C8.51232 13.2722 8.25732 13.0202 8.25732 12.7097C8.25732 12.3992 8.50557 12.1472 8.81607 12.1472H8.82282C9.13332 12.1472 9.38532 12.3992 9.38532 12.7097C9.38532 13.0202 9.13332 13.2722 8.82282 13.2722Z" fill="#2E2E2E"/>
<path fill-rule="evenodd" clip-rule="evenodd" d="M5.48764 13.2722C5.17714 13.2722 4.92139 13.0202 4.92139 12.7097C4.92139 12.3992 5.17039 12.1472 5.48089 12.1472H5.48764C5.79814 12.1472 6.05014 12.3992 6.05014 12.7097C6.05014 13.0202 5.79814 13.2722 5.48764 13.2722Z" fill="#2E2E2E"/>
<path fill-rule="evenodd" clip-rule="evenodd" d="M11.8452 4.34325C11.5347 4.34325 11.2827 4.09125 11.2827 3.78075V1.3125C11.2827 1.002 11.5347 0.75 11.8452 0.75C12.1557 0.75 12.4077 1.002 12.4077 1.3125V3.78075C12.4077 4.09125 12.1557 4.34325 11.8452 4.34325Z" fill="#2E2E2E"/>
<path fill-rule="evenodd" clip-rule="evenodd" d="M5.78638 4.34325C5.47588 4.34325 5.22388 4.09125 5.22388 3.78075V1.3125C5.22388 1.002 5.47588 0.75 5.78638 0.75C6.09688 0.75 6.34888 1.002 6.34888 1.3125V3.78075C6.34888 4.09125 6.09688 4.34325 5.78638 4.34325Z" fill="#2E2E2E"/>
<mask id="mask0_317_52897" style="mask-type:luminance" maskUnits="userSpaceOnUse" x="1" y="1" width="16" height="16">
<path fill-rule="evenodd" clip-rule="evenodd" d="M1.5 1.93433H16.125V16.875H1.5V1.93433Z" fill="white"/>
</mask>
<g mask="url(#mask0_317_52897)">
<path fill-rule="evenodd" clip-rule="evenodd" d="M5.64075 3.05933C3.696 3.05933 2.625 4.09658 2.625 5.97983V12.7666C2.625 14.6911 3.696 15.7501 5.64075 15.7501H11.9843C13.929 15.7501 15 14.7106 15 12.8236V5.97983C15.003 5.05358 14.754 4.33358 14.2597 3.83858C13.7512 3.32858 12.9675 3.05933 11.991 3.05933H5.64075ZM11.9843 16.8751H5.64075C3.087 16.8751 1.5 15.3008 1.5 12.7666V5.97983C1.5 3.48383 3.087 1.93433 5.64075 1.93433H11.991C13.2727 1.93433 14.3325 2.31833 15.0563 3.04358C15.759 3.74933 16.1287 4.76408 16.125 5.98133V12.8236C16.125 15.3226 14.538 16.8751 11.9843 16.8751Z" fill="#2E2E2E"/>
</g>
</svg>
