<svg width="16" height="16" viewBox="0 0 16 16" fill="none" xmlns="http://www.w3.org/2000/svg">
<path fill-rule="evenodd" clip-rule="evenodd" d="M4.77668 11.5804C4.94843 11.5804 5.12018 11.6021 5.28818 11.6471C5.79518 11.7836 6.23543 12.1226 6.49643 12.5779C6.66593 12.8636 6.75968 13.1974 6.76268 13.5379C6.76268 14.0254 7.15418 14.4161 7.63568 14.4161H8.57543C9.05468 14.4161 9.44618 14.0276 9.44843 13.5484C9.44543 13.0189 9.65243 12.5156 10.0312 12.1369C10.4047 11.7634 10.9267 11.5391 11.4487 11.5541C11.7907 11.5624 12.1199 11.6546 12.4102 11.8196C12.8279 12.0589 13.3612 11.9164 13.6027 11.5039L14.1007 10.6736C14.2117 10.4824 14.2439 10.2424 14.1847 10.0211C14.1262 9.79987 13.9792 9.60787 13.7812 9.49462C13.3177 9.22762 12.9869 8.79712 12.8497 8.28112C12.7139 7.77487 12.7882 7.22212 13.0529 6.76687C13.2254 6.46687 13.4782 6.21412 13.7812 6.04012C14.1877 5.80237 14.3302 5.27062 14.0939 4.85662C14.0842 4.84012 14.0752 4.82287 14.0677 4.80487L13.6282 4.04287C13.3889 3.62662 12.8564 3.48337 12.4387 3.72112C11.9872 3.98812 11.4502 4.06462 10.9342 3.92887C10.4189 3.79537 9.98693 3.46912 9.71768 3.00862C9.54518 2.72062 9.45143 2.38537 9.44843 2.04412C9.45518 1.78762 9.36518 1.55737 9.20168 1.38862C9.03893 1.22062 8.81018 1.12537 8.57543 1.12537H7.63568C7.40318 1.12537 7.18568 1.21612 7.02143 1.37962C6.85793 1.54387 6.76868 1.76212 6.77018 1.99462C6.75443 3.09112 5.85818 3.97387 4.77293 3.97387C4.42493 3.97012 4.08968 3.87637 3.79868 3.70237C3.38993 3.46987 2.85593 3.61312 2.61668 4.02937L2.10893 4.86412C1.87643 5.26762 2.01893 5.80087 2.43293 6.04162C3.04718 6.39712 3.43043 7.06012 3.43043 7.77112C3.43043 8.48212 3.04718 9.14437 2.43143 9.50062C2.01968 9.73912 1.87718 10.2694 2.11568 10.6819L2.58893 11.4979C2.70593 11.7086 2.89718 11.8609 3.11843 11.9231C3.33893 11.9846 3.58193 11.9584 3.78443 11.8459C4.08218 11.6711 4.42868 11.5804 4.77668 11.5804M8.57543 15.5411H7.63568C6.53393 15.5411 5.63768 14.6456 5.63768 13.5439C5.63618 13.4081 5.59718 13.2671 5.52443 13.1449C5.40668 12.9394 5.21618 12.7924 4.99643 12.7339C4.77818 12.6754 4.53893 12.7076 4.34243 12.8216C3.87143 13.0841 3.31718 13.1479 2.81018 13.0054C2.30393 12.8621 1.86668 12.5141 1.61018 12.0529L1.14143 11.2451C0.593179 10.2941 0.919429 9.07537 1.86893 8.52637C2.13818 8.37112 2.30543 8.08162 2.30543 7.77112C2.30543 7.46062 2.13818 7.17037 1.86893 7.01512C0.918679 6.46312 0.593179 5.24137 1.14068 4.29037L1.64918 3.45562C2.18993 2.51512 3.41243 2.18362 4.36568 2.73112C4.49543 2.80837 4.63643 2.84737 4.77968 2.84887C5.24693 2.84887 5.63768 2.46337 5.64518 1.98937C5.64218 1.46662 5.84843 0.964866 6.22418 0.586116C6.60143 0.208116 7.10243 0.000366211 7.63568 0.000366211H8.57543C9.11243 0.000366211 9.63443 0.220866 10.0087 0.604116C10.3822 0.989616 10.5884 1.51837 10.5727 2.05462C10.5742 2.17537 10.6139 2.31487 10.6859 2.43712C10.8052 2.63962 10.9934 2.78212 11.2169 2.84062C11.4404 2.89612 11.6744 2.86612 11.8732 2.74837C12.8332 2.20012 14.0549 2.52862 14.6032 3.48112L15.0704 4.29037C15.0824 4.31212 15.0929 4.33312 15.1019 4.35487C15.5984 5.29312 15.2669 6.47437 14.3444 7.01362C14.2102 7.09087 14.1014 7.19887 14.0264 7.32937C13.9102 7.53112 13.8779 7.77112 13.9364 7.99162C13.9964 8.21662 14.1397 8.40337 14.3414 8.51887C14.7967 8.78062 15.1364 9.22162 15.2722 9.73087C15.4079 10.2394 15.3337 10.7914 15.0689 11.2466L14.5709 12.0761C14.0227 13.0181 12.8009 13.3444 11.8507 12.7954C11.7239 12.7226 11.5777 12.6829 11.4322 12.6791H11.4277C11.2109 12.6791 10.9882 12.7714 10.8262 12.9326C10.6619 13.0969 10.5719 13.3159 10.5734 13.5484C10.5682 14.6501 9.67193 15.5411 8.57543 15.5411" fill="#666666"/>
</svg>
