<?xml version="1.0" encoding="UTF-8"?>
<!DOCTYPE svg PUBLIC "-//W3C//DTD SVG 1.1//EN" "http://www.w3.org/Graphics/SVG/1.1/DTD/svg11.dtd">
<!-- Creator: CorelDRAW X7 -->
<svg xmlns="http://www.w3.org/2000/svg" xml:space="preserve" width="351px" height="317px" version="1.1" style="shape-rendering:geometricPrecision; text-rendering:geometricPrecision; image-rendering:optimizeQuality; fill-rule:evenodd; clip-rule:evenodd"
viewBox="0 0 309 279"
 xmlns:xlink="http://www.w3.org/1999/xlink">
 <defs>
  <style type="text/css">
   <![CDATA[
    .fil0 {fill:black}
   ]]>
  </style>
 </defs>
 <g id="Layer_x0020_1">
  <metadata id="CorelCorpID_0Corel-Layer"/>
  <g id="_1915667294528">
   <path class="fil0" d="M143 253c26,9 26,-36 30,-59 10,-48 -14,-34 -20,-65l33 -24 24 33c18,2 51,3 67,-2l1 -16 -51 -4c-15,-21 -16,-70 -47,-72 -19,-2 -56,31 -73,43 -37,28 -14,49 12,70 41,32 10,56 24,96z"/>
   <path class="fil0" d="M213 223c-4,-44 68,-56 73,-6 4,46 -68,51 -73,6zm19 -59c-79,30 -31,136 38,112 72,-25 34,-139 -38,-112z"/>
   <path class="fil0" d="M23 223c-5,-44 68,-56 72,-6 5,46 -67,51 -72,6zm18 -59c-79,30 -31,136 38,112 72,-25 35,-139 -38,-112z"/>
   <path class="fil0" d="M224 3c-37,16 -13,67 24,53 31,-13 17,-70 -24,-53z"/>
  </g>
 </g>
</svg>
