<?xml version="1.0" encoding="UTF-8"?>
<!DOCTYPE svg PUBLIC "-//W3C//DTD SVG 1.1//EN" "http://www.w3.org/Graphics/SVG/1.1/DTD/svg11.dtd">
<!-- Creator: CorelDRAW X7 -->
<svg xmlns="http://www.w3.org/2000/svg" xml:space="preserve" width="350px" height="325px" version="1.1" style="shape-rendering:geometricPrecision; text-rendering:geometricPrecision; image-rendering:optimizeQuality; fill-rule:evenodd; clip-rule:evenodd"
viewBox="0 0 282 262"
 xmlns:xlink="http://www.w3.org/1999/xlink">
 <defs>
  <style type="text/css">
   <![CDATA[
    .fil0 {fill:black}
   ]]>
  </style>
 </defs>
 <g id="Layer_x0020_1">
  <metadata id="CorelCorpID_0Corel-Layer"/>
  <g id="_1915673756448">
   <path class="fil0" d="M174 155l-60 0c9,-18 -5,-14 17,-54 21,0 46,6 64,10 -4,17 -16,24 -21,44zm-114 -11l0 11c-55,0 -53,-5 -53,16 0,20 11,51 31,56 9,2 20,1 29,1 -13,-11 -34,-18 -37,-53l131 0c-5,20 -19,33 -23,53 32,0 25,-7 50,-53l64 0c-1,13 -6,22 -12,31 -10,14 -11,10 -25,22 22,0 35,3 45,-12 10,-15 15,-31 15,-51 0,-17 -45,-10 -77,-10 9,-18 11,-27 22,-39 5,-6 8,-1 8,-12 0,-17 -119,-43 -121,-43 -29,0 -47,54 -47,83z"/>
   <path class="fil0" d="M0 238c0,23 46,24 64,24 17,0 25,-9 33,-9 12,0 6,9 54,9 17,0 26,-9 34,-9 11,0 5,9 53,9 45,0 51,-34 37,-34 -15,0 -26,14 -47,14 -18,0 -35,-14 -43,-14 -9,0 -26,14 -44,14 -18,0 -35,-14 -44,-14 -8,0 -25,14 -43,14 -23,0 -54,-28 -54,-4z"/>
   <path class="fil0" d="M121 27c0,36 53,36 53,0 0,-36 -53,-36 -53,0z"/>
  </g>
 </g>
</svg>
