<?xml version="1.0" encoding="UTF-8"?>
<!DOCTYPE svg PUBLIC "-//W3C//DTD SVG 1.1//EN" "http://www.w3.org/Graphics/SVG/1.1/DTD/svg11.dtd">
<!-- Creator: CorelDRAW X7 -->
<svg xmlns="http://www.w3.org/2000/svg" xml:space="preserve" width="283px" height="317px" version="1.1" style="shape-rendering:geometricPrecision; text-rendering:geometricPrecision; image-rendering:optimizeQuality; fill-rule:evenodd; clip-rule:evenodd"
viewBox="0 0 235 263"
 xmlns:xlink="http://www.w3.org/1999/xlink">
 <defs>
  <style type="text/css">
   <![CDATA[
    .fil0 {fill:black}
   ]]>
  </style>
 </defs>
 <g id="Layer_x0020_1">
  <metadata id="CorelCorpID_0Corel-Layer"/>
  <g id="_1952026021376">
   <path class="fil0" d="M21 101c0,7 2,10 10,10 16,0 31,-38 42,-38 17,0 15,3 31,3 -11,41 -72,61 -5,95 13,6 30,16 43,19 1,19 7,60 14,73 25,0 17,-1 17,-93 -7,-5 -11,-7 -19,-12 -10,-6 -12,-10 -23,-13 2,-13 16,-32 25,-38 7,6 8,10 14,18 40,0 65,6 65,-11 0,-12 -8,-10 -20,-10 -11,0 -21,0 -32,0l-15 -33c-17,-31 -31,-22 -95,-22 -19,0 -23,10 -31,21 -5,6 -21,23 -21,31z"/>
   <path class="fil0" d="M62 194c-19,0 -49,4 -62,10 0,24 -1,18 80,18 6,-10 18,-27 20,-38 -15,-4 -14,-9 -31,-11 -2,9 -3,14 -7,21z"/>
   <path class="fil0" d="M159 28c0,37 55,37 55,0 0,-37 -55,-37 -55,0z"/>
  </g>
 </g>
</svg>
