<?xml version="1.0" encoding="UTF-8"?>
<!DOCTYPE svg PUBLIC "-//W3C//DTD SVG 1.1//EN" "http://www.w3.org/Graphics/SVG/1.1/DTD/svg11.dtd">
<!-- Creator: CorelDRAW X7 -->
<svg xmlns="http://www.w3.org/2000/svg" xml:space="preserve" width="333px" height="201px" version="1.1" style="shape-rendering:geometricPrecision; text-rendering:geometricPrecision; image-rendering:optimizeQuality; fill-rule:evenodd; clip-rule:evenodd"
viewBox="0 0 317 191"
 xmlns:xlink="http://www.w3.org/1999/xlink">
 <defs>
  <style type="text/css">
   <![CDATA[
    .fil0 {fill:black}
   ]]>
  </style>
 </defs>
 <g id="Layer_x0020_1">
  <metadata id="CorelCorpID_0Corel-Layer"/>
  <g id="_1915667953872">
   <path class="fil0" d="M0 71c32,8 69,-19 107,-20 8,16 14,26 24,40 -12,8 -55,39 -60,51 50,0 23,-4 51,-12 28,-9 15,12 60,12 15,0 16,-19 48,-11 -4,-16 -17,-23 -27,-33 -6,-6 -11,-10 -16,-16 -11,-13 -67,-78 -76,-78 -7,0 -52,22 -61,26 -39,19 -49,13 -50,41z"/>
   <path class="fil0" d="M32 162c0,25 62,41 99,16 25,17 62,17 87,0 36,25 99,9 99,-16 0,-28 -33,4 -56,4 -19,0 -36,-16 -43,-16 -7,0 -24,16 -44,16 -19,0 -36,-16 -43,-16 -8,0 -24,16 -44,16 -22,0 -55,-32 -55,-4z"/>
   <path class="fil0" d="M210 47c0,63 99,77 99,-4 0,-30 -47,-61 -83,-30 -6,6 -16,24 -16,34z"/>
  </g>
 </g>
</svg>
