<?xml version="1.0" encoding="UTF-8"?>
<!DOCTYPE svg PUBLIC "-//W3C//DTD SVG 1.1//EN" "http://www.w3.org/Graphics/SVG/1.1/DTD/svg11.dtd">
<!-- Creator: CorelDRAW X7 -->
<svg xmlns="http://www.w3.org/2000/svg" xml:space="preserve" width="233px" height="334px" version="1.1" style="shape-rendering:geometricPrecision; text-rendering:geometricPrecision; image-rendering:optimizeQuality; fill-rule:evenodd; clip-rule:evenodd"
viewBox="0 0 217 311"
 xmlns:xlink="http://www.w3.org/1999/xlink">
 <defs>
  <style type="text/css">
   <![CDATA[
    .fil0 {fill:black}
   ]]>
  </style>
 </defs>
 <g id="Layer_x0020_1">
  <metadata id="CorelCorpID_0Corel-Layer"/>
  <g id="_1915666655984">
   <path class="fil0" d="M0 159c0,9 3,12 12,12 23,0 19,-42 58,-43 -4,45 -24,56 16,85 49,36 27,17 54,62 7,11 14,35 27,35 41,0 -41,-121 -41,-121 -1,-7 6,-32 6,-49 17,11 7,15 31,27 19,10 54,33 54,8 0,-21 -38,-14 -57,-45 -22,-35 -34,-71 -83,-41 -33,19 -35,12 -57,40 -5,6 -20,21 -20,30z"/>
   <path class="fil0" d="M101 31c0,42 62,42 62,0 0,-41 -62,-41 -62,0z"/>
   <path class="fil0" d="M23 299c0,36 48,-19 48,-19 20,-19 14,-19 26,-43 -16,-9 -18,-16 -35,-20 0,53 -39,60 -39,82z"/>
  </g>
 </g>
</svg>
