<?xml version="1.0" encoding="UTF-8"?>
<!DOCTYPE svg PUBLIC "-//W3C//DTD SVG 1.1//EN" "http://www.w3.org/Graphics/SVG/1.1/DTD/svg11.dtd">
<!-- Creator: CorelDRAW X7 -->
<svg xmlns="http://www.w3.org/2000/svg" xml:space="preserve" width="342px" height="349px" version="1.1" style="shape-rendering:geometricPrecision; text-rendering:geometricPrecision; image-rendering:optimizeQuality; fill-rule:evenodd; clip-rule:evenodd"
viewBox="0 0 367 374"
 xmlns:xlink="http://www.w3.org/1999/xlink">
 <defs>
  <style type="text/css">
   <![CDATA[
    .fil0 {fill:black}
   ]]>
  </style>
 </defs>
 <g id="Layer_x0020_1">
  <metadata id="CorelCorpID_0Corel-Layer"/>
  <g id="_1915668984400">
   <path class="fil0" d="M107 63l152 0c-1,40 -31,87 -76,85 -59,-2 -70,-72 -76,-85zm-98 -36c0,29 -1,6 -9,27 9,24 6,-6 9,22 1,7 0,23 0,31l44 0 1 -44 18 -1c12,16 15,43 26,63 26,47 52,16 50,107l-1 17c-20,19 -33,38 -50,58 -33,40 -48,43 -40,66 31,10 55,-51 131,-97 15,10 41,16 50,31 8,21 3,47 18,67l18 0c6,-33 4,-66 3,-100l-49 -33c-3,-108 19,-69 45,-116 7,-13 10,-39 17,-54 6,-14 0,-1 5,-8l17 0 1 44 45 0c0,-8 -1,-24 -1,-31 3,-28 0,2 10,-22 -8,-21 -9,2 -9,-27l0 -27 -45 0 0 44c-31,2 -12,-8 -31,-8 -18,0 -3,9 -32,9l-134 0c-29,0 -14,-9 -31,-9 -20,0 -1,10 -31,8l0 -44 -45 0 0 27z"/>
   <path class="fil0" d="M169 76c-9,4 -11,-2 -16,15 -2,9 -2,18 2,27 5,14 25,22 44,14 28,-12 22,-78 -30,-56z"/>
  </g>
 </g>
</svg>
